<svg width="24" height="19" viewBox="0 0 24 19" fill="none" xmlns="http://www.w3.org/2000/svg">
<path d="M1.99181 10.7307H22.0084C22.8334 10.7307 23.5021 10.0619 23.5021 9.23692C23.5021 8.41193 22.8334 7.74316 22.0084 7.74316H1.99181C1.16681 7.74316 0.498047 8.41193 0.498047 9.23692C0.498 10.0619 1.16681 10.7307 1.99181 10.7307Z" fill="#666666"/>
<path d="M13.4938 4.52112C13.0578 4.52112 12.7031 4.87577 12.7031 5.31176V6.33677H18.8221V5.31176C18.8221 4.87577 18.4675 4.52112 18.0315 4.52112H13.4938Z" fill="#666666"/>
<path d="M3.77151 5.31187C3.77151 4.10048 4.75701 3.11498 5.9684 3.11498H10.5061C11.0826 3.11498 11.6076 3.33848 11.9999 3.70298C12.3922 3.33848 12.9172 3.11498 13.4937 3.11498H18.0314C19.2428 3.11498 20.2283 4.10048 20.2283 5.31187V6.33689H22.5106V1.49377C22.5106 0.668766 21.8418 0 21.0168 0H2.98302C2.15802 0 1.48926 0.668766 1.48926 1.49377V6.33689H3.77151V5.31187Z" fill="#666666"/>
<path d="M5.96838 4.52112C5.53239 4.52112 5.17773 4.87577 5.17773 5.31176V6.33677H11.2968V5.31176C11.2968 4.87577 10.9421 4.52112 10.5061 4.52112H5.96838Z" fill="#666666"/>
<path d="M0 12.1368V18.6064H1.40625V16.0425H22.5938V18.6064H24V12.1368H0Z" fill="#666666"/>
</svg>
