<svg width="50" height="50" viewBox="0 0 50 50" fill="none" xmlns="http://www.w3.org/2000/svg">
<g clip-path="url(#clip0_36615_199)">
<path d="M46.239 13.5662L46.2374 13.5273C46.2157 13.047 46.2012 12.5389 46.1924 11.9736C46.1516 9.21668 43.9601 6.93626 41.2028 6.78214C35.4541 6.46133 31.0069 4.58679 27.2071 0.883111L27.1747 0.852212C25.9353 -0.284183 24.0657 -0.284183 22.8259 0.852212L22.7935 0.883111C18.9937 4.58679 14.5465 6.46133 8.7978 6.78252C6.04093 6.93626 3.84901 9.21668 3.80819 11.9739C3.7998 12.5355 3.78492 13.0436 3.76318 13.5273L3.76089 13.6177C3.64912 19.4797 3.51027 26.7753 5.9509 33.3972C7.29291 37.0387 9.32538 40.2041 11.9915 42.8061C15.028 45.7694 19.0051 48.1219 23.8124 49.7981C23.9688 49.8526 24.1313 49.8969 24.2969 49.9301C24.5303 49.9766 24.7653 49.9999 25.0003 49.9999C25.2353 49.9999 25.4707 49.9766 25.7037 49.9301C25.8693 49.8969 26.0329 49.8522 26.1901 49.7973C30.9916 48.1181 34.9646 45.7644 37.9985 42.8016C40.6634 40.1988 42.6959 37.0326 44.039 33.3903C46.4888 26.7486 46.3503 19.4393 46.239 13.5662ZM41.2863 32.3753C38.7122 39.3546 33.4575 44.1478 25.2219 47.0279C25.1926 47.0378 25.1613 47.0465 25.1289 47.053C25.0438 47.0698 24.9572 47.0698 24.871 47.0526C24.8389 47.0462 24.8077 47.0378 24.7787 47.0279C16.5344 44.1531 11.2762 39.3626 8.70396 32.3829C6.45444 26.279 6.58185 19.5819 6.69439 13.6738L6.69515 13.641C6.71804 13.1332 6.7333 12.6014 6.74169 12.017C6.76 10.7929 7.73503 9.78011 8.96145 9.71182C12.2146 9.53024 15.0726 8.90158 17.6986 7.78998C20.3212 6.67991 22.6505 5.11513 24.8187 3.00637C24.929 2.91329 25.072 2.91291 25.1819 3.00637C27.3505 5.11513 29.6798 6.67991 32.302 7.78998C34.928 8.90158 37.786 9.53024 41.0395 9.71182C42.266 9.78011 43.241 10.7929 43.2589 12.0174C43.2677 12.6049 43.283 13.1366 43.3058 13.641C43.418 19.556 43.5424 26.2584 41.2863 32.3753Z" fill="#244D4D"/>
<path d="M24.9998 12.5401C18.1287 12.5401 12.5391 18.1301 12.5391 25.0008C12.5391 31.8718 18.1287 37.4619 24.9998 37.4619C31.8704 37.4619 37.4605 31.8718 37.4605 25.0008C37.4605 18.1301 31.8704 12.5401 24.9998 12.5401ZM24.9998 34.5276C19.7466 34.5276 15.4729 30.254 15.4729 25.0008C15.4729 19.7476 19.7466 15.474 24.9998 15.474C30.2526 15.474 34.5262 19.7476 34.5262 25.0008C34.5262 30.254 30.2526 34.5276 24.9998 34.5276Z" fill="#244D4D"/>
<path d="M28.5806 21.1323L22.7929 26.9199L21.222 25.3491C20.6491 24.7761 19.7202 24.7761 19.1472 25.3491C18.5746 25.922 18.5746 26.8509 19.1472 27.4235L21.7557 30.032C22.0422 30.3185 22.4176 30.4615 22.7929 30.4615C23.1683 30.4615 23.5437 30.3185 23.8301 30.032L30.6554 23.2067C31.228 22.6338 31.228 21.7049 30.6554 21.1323C30.0824 20.5589 29.1535 20.5589 28.5806 21.1323Z" fill="#244D4D"/>
</g>
<defs>
<clipPath id="clip0_36615_199">
<rect width="50" height="50" fill="white"/>
</clipPath>
</defs>
</svg>
