<svg width="24" height="19" viewBox="0 0 24 19" fill="none" xmlns="http://www.w3.org/2000/svg">
<path d="M19.6216 7.08209C19.9025 7.08209 20.1302 6.85441 20.1302 6.57351V4.94205C20.1302 4.66116 19.9025 4.43347 19.6216 4.43347L18.8977 4.43788L16.5225 7.08209H19.6216Z" fill="#666666"/>
<path d="M4.37675 7.08189H7.50026L5.08382 4.43335H4.37675C4.09585 4.43335 3.86816 4.66104 3.86816 4.94193V6.57326C3.86816 6.8542 4.09585 7.08189 4.37675 7.08189Z" fill="#666666"/>
<path d="M12.2905 9.70468L17.0037 4.43347H6.99414L11.7848 9.70669C11.9206 9.85619 12.1559 9.85525 12.2905 9.70468Z" fill="#666666"/>
<path d="M13.6171 17.1227H12.7415V11.204C12.5315 11.3253 12.2915 11.3915 12.0439 11.3925C12.042 11.3925 12.0402 11.3925 12.0383 11.3925C11.7889 11.3925 11.5469 11.3262 11.3352 11.204V17.1227H10.3799C9.99159 17.1227 9.67676 17.4375 9.67676 17.8258C9.67676 18.2142 9.99159 18.529 10.3799 18.529H13.6172C14.0055 18.529 14.3203 18.2142 14.3203 17.8258C14.3203 17.4375 14.0054 17.1227 13.6171 17.1227Z" fill="#666666"/>
<path d="M5.92969 9.03834H1.40635V0.703176C1.40635 0.314835 1.09152 0 0.703176 0C0.314835 0 0 0.314835 0 0.703176V17.8821C0 18.2704 0.314835 18.5853 0.703176 18.5853C1.09152 18.5853 1.40635 18.2704 1.40635 17.8821V12.6297H6.51905V17.8821C6.51905 18.2704 6.83388 18.5853 7.22223 18.5853C7.61057 18.5853 7.9254 18.2704 7.9254 17.8821V11.034C7.9254 9.93358 7.03012 9.03834 5.92969 9.03834Z" fill="#666666"/>
<path d="M23.2961 0C22.9078 0 22.593 0.314835 22.593 0.703176V9.03834H18.1744C17.0739 9.03834 16.1787 9.93362 16.1787 11.034V17.8821C16.1787 18.2704 16.4935 18.5853 16.8819 18.5853C17.2702 18.5853 17.5851 18.2704 17.5851 17.8821V12.6286H22.593V17.8821C22.593 18.2704 22.9078 18.5853 23.2962 18.5853C23.6845 18.5853 23.9994 18.2704 23.9994 17.8821V0.703176C23.9993 0.314835 23.6845 0 23.2961 0Z" fill="#666666"/>
</svg>
