<svg width="50" height="50" viewBox="0 0 50 50" fill="none" xmlns="http://www.w3.org/2000/svg">
<g clip-path="url(#clip0_36615_208)">
<path d="M40.6901 20.4121H35.8789V17.1699C35.8789 16.3609 35.223 15.7051 34.4141 15.7051H1.46484C0.655859 15.7051 0 16.3609 0 17.1699V43.8431C0 44.6521 0.655859 45.3079 1.46484 45.3079H6.45312C8.04727 51.5463 16.851 51.5421 18.4427 45.3079H31.5572C33.1514 51.5463 41.9551 51.5421 43.5468 45.3079H48.5352C49.3441 45.3079 50 44.6521 50 43.8431V29.722C50 24.5885 45.8235 20.4121 40.6901 20.4121ZM12.4479 47.0853C10.6602 47.0853 9.20576 45.6308 9.20576 43.8431C9.38379 39.5419 15.5128 39.5432 15.6901 43.8431C15.6901 45.6308 14.2356 47.0853 12.4479 47.0853ZM32.9492 39.7371C32.2866 40.4791 31.8009 41.3814 31.5572 42.3781H18.4427C16.8485 36.1398 8.04482 36.144 6.45312 42.3781H2.92969V18.6347H32.9492V39.7371ZM37.5521 47.0853C35.7643 47.0853 34.3099 45.6308 34.3099 43.8431C34.4879 39.5419 40.6169 39.5432 40.7942 43.8431C40.7942 45.6308 39.3398 47.0853 37.5521 47.0853ZM47.0703 42.3782H43.5484C42.8891 39.6798 40.4508 37.6712 37.5521 37.6712H35.8789V23.3418H39.2253V32.8601C39.2253 33.669 39.8812 34.3249 40.6901 34.3249H47.0703V42.3782ZM47.0703 31.3951H42.155V23.5114C44.9692 24.1752 47.0703 26.7079 47.0703 29.722V31.3951Z" fill="#244D4D"/>
<path d="M35.9828 12.3587H39.9053C41.8489 12.2812 41.8474 9.50565 39.9053 9.42899H37.712L38.0082 7.65164H39.9053C41.8489 7.5742 41.8474 4.79861 39.9053 4.72195H38.4964L38.7926 2.94461H41.4743C43.4178 2.86717 43.4164 0.0915833 41.4743 0.0149231H37.5517C36.8356 0.0149231 36.2245 0.532599 36.1068 1.23895L34.5378 10.653C34.389 11.5461 35.0789 12.3587 35.9828 12.3587Z" fill="#222222"/>
<path d="M26.5686 12.3587H30.4912C32.4347 12.2812 32.4333 9.50565 30.4912 9.42899H28.2978L28.594 7.65164H30.4912C32.4347 7.5742 32.4333 4.79861 30.4912 4.72195H29.0824L29.3787 2.94461H32.0602C34.0038 2.86717 34.0023 0.0915833 32.0602 0.0149231H28.1377C27.4216 0.0149231 26.8105 0.532599 26.6928 1.23895L25.1238 10.653C24.975 11.5461 25.6648 12.3587 26.5686 12.3587Z" fill="#244D4D"/>
<path d="M15.3455 12.3388C16.4828 12.5283 16.9631 11.5429 17.0312 11.1346L17.2714 9.69344L20.1553 12.0316C20.8219 12.572 21.7379 12.4057 22.2158 11.8163C22.7253 11.1879 22.6289 10.2654 22.0004 9.75594L20.3724 8.43611H21.7313C22.4473 8.43611 23.0584 7.91844 23.1762 7.21219L24.0917 1.72068C24.2406 0.827521 23.5507 0.0149231 22.6468 0.0149231H17.1553C16.4392 0.0149231 15.8281 0.532599 15.7104 1.23895L14.8013 6.69305C14.8009 6.695 14.8007 6.69705 14.8003 6.69901C14.7996 6.70291 14.7991 6.70682 14.7984 6.71072C14.7952 6.7286 14.7919 6.74656 14.7894 6.76463L14.1413 10.653C14.0082 11.451 14.5474 12.2057 15.3455 12.3388ZM18.3962 2.94461H20.9175L20.4905 5.50643H17.9692L18.3962 2.94461Z" fill="#244D4D"/>
<path d="M6.7155 12.3388C7.8528 12.5283 8.33317 11.5428 8.40124 11.1347L8.85095 8.43624H10.8788C12.8223 8.3588 12.8209 5.58321 10.8788 5.50655H9.33923L9.76618 2.94473H12.4478C14.3914 2.86729 14.3899 0.0917053 12.4478 0.0150452H8.52526C7.80915 0.0150452 7.19802 0.532721 7.08034 1.23907L5.5114 10.6531C5.37829 11.451 5.91745 12.2058 6.7155 12.3388Z" fill="#244D4D"/>
</g>
<defs>
<clipPath id="clip0_36615_208">
<rect width="50" height="50" fill="white"/>
</clipPath>
</defs>
</svg>
