<svg width="24" height="24" viewBox="0 0 24 24" fill="none" xmlns="http://www.w3.org/2000/svg">
<path d="M0 24H9.88598V18.3308H0V24ZM2.16216 19.7989H7.77066V21.2045H2.16216V19.7989Z" fill="#666666"/>
<path d="M0 16.9252H9.88598V11.3497H0V16.9252ZM2.16216 12.8453H7.77066V14.2509H2.16216V12.8453Z" fill="#666666"/>
<path d="M11.292 24H23.9892V11.3497H11.292V24ZM19.7256 12.8453H21.1311V14.2856H19.7256V12.8453ZM16.9144 12.8453H18.32V14.2856H16.9144V12.8453ZM14.1032 12.8453H15.5088V14.2856H14.1032V12.8453ZM14.1032 15.5431H21.1311V21.1889H14.1032V15.5431Z" fill="#666666"/>
<path d="M19.7256 3.24052V0H15.5088V3.24286L11.292 6.054V8.53852H23.9892V6.05166L19.7256 3.24052Z" fill="#666666"/>
</svg>
